HIERARCHY
ROOT Hips
{
	OFFSET	0	0	0
	CHANNELS 6  Xposition Yposition Zposition Xrotation Yrotation Zrotation
	JOINT Spine
	{
		OFFSET	0	0.0328084	0
		CHANNELS 6  Xrotation Yrotation Zrotation Xposition Yposition Zposition
		JOINT Spine1
		{
			OFFSET	0	0.364378	-0.0650674
			CHANNELS 6  Xrotation Yrotation Zrotation Xposition Yposition Zposition
			JOINT Spine2
			{
				OFFSET	0	0.276211	0.0296057
				CHANNELS 6  Xrotation Yrotation Zrotation Xposition Yposition Zposition
				JOINT Spine3
				{
					OFFSET	0	0.330543	0.0982518
					CHANNELS 6  Xrotation Yrotation Zrotation Xposition Yposition Zposition
					JOINT Spine4
					{
						OFFSET	0	0.489307	-0.0501019
						CHANNELS 3  Xrotation Yrotation Zrotation
						JOINT Neck
						{
							OFFSET	0	0.233592	-0.163645
							CHANNELS 3  Xrotation Yrotation Zrotation
							JOINT Head
							{
								OFFSET	0	0.280441	-0.083937
								CHANNELS 3  Xrotation Yrotation Zrotation
								End Site
								{
									OFFSET	0	0.584956	-0.0283043
								}
							}
						}
					}
					JOINT LeftShoulder
					{
						OFFSET	-0.140546	0.594716	-0.280441
						CHANNELS 3  Xrotation Yrotation Zrotation
						JOINT LeftArm
						{
							OFFSET	-0.349184	-0.083937	0.107687
							CHANNELS 3  Xrotation Yrotation Zrotation
							JOINT LeftForeArm
							{
								OFFSET	-1.05237	-0.0480318	0.0751168
								CHANNELS 3  Xrotation Yrotation Zrotation
								JOINT LeftHand
								{
									OFFSET	-0.914048	-0.0631659	0.0652438
									CHANNELS 3  Xrotation Yrotation Zrotation
									End Site
									{
										OFFSET	-0.333582	-0.0230524	0.0238092
									}
								}
							}
						}
					}
					JOINT RightShoulder
					{
						OFFSET	0.140546	0.594716	-0.280441
						CHANNELS 3  Xrotation Yrotation Zrotation
						JOINT RightArm
						{
							OFFSET	0.349184	-0.083937	0.107687
							CHANNELS 3  Xrotation Yrotation Zrotation
							JOINT RightForeArm
							{
								OFFSET	1.05237	-0.0480318	0.0751168
								CHANNELS 3  Xrotation Yrotation Zrotation
								JOINT RightHand
								{
									OFFSET	0.914048	-0.0631659	0.0652438
									CHANNELS 3  Xrotation Yrotation Zrotation
									End Site
									{
										OFFSET	0.333582	-0.0230524	0.0238092
									}
								}
							}
						}
					}
				}
			}
		}
	}
	JOINT LeftUpLeg
	{
		OFFSET	-0.377489	-0.268747	-0.0640914
		CHANNELS 3  Xrotation Yrotation Zrotation
		JOINT LeftLeg
		{
			OFFSET	0.00610822	-1.47615	-0.0230755
			CHANNELS 3  Xrotation Yrotation Zrotation
			JOINT LeftFoot
			{
				OFFSET	-0.078161	-1.44076	0.123905
				CHANNELS 3  Xrotation Yrotation Zrotation
				JOINT LeftToeBase
				{
					OFFSET	0	-0.118447	-0.314596
					CHANNELS 3  Xrotation Yrotation Zrotation
					End Site
					{
						OFFSET	0	-0.0473789	-0.189516
					}
				}
			}
		}
	}
	JOINT RightUpLeg
	{
		OFFSET	0.377489	-0.268747	-0.0640914
		CHANNELS 3  Xrotation Yrotation Zrotation
		JOINT RightLeg
		{
			OFFSET	-0.00610822	-1.47615	-0.0230755
			CHANNELS 3  Xrotation Yrotation Zrotation
			JOINT RightFoot
			{
				OFFSET	0.078161	-1.44076	0.123905
				CHANNELS 3  Xrotation Yrotation Zrotation
				JOINT RightToeBase
				{
					OFFSET	0	-0.118447	-0.314596
					CHANNELS 3  Xrotation Yrotation Zrotation
					End Site
					{
						OFFSET	0	-0.0473789	-0.189516
					}
				}
			}
		}
	}
}
MOTION
Frames: 6
Frame Time: 0.02
 0.112818 3.37324 -2.45124 5.57953 -116.437 13.7773 1.89541 0.000367254 -1.79616 0 0.0363242 0 1.13728 0.000733866 -2.9936 0 0.0363242 0 2.45196 0.0022016 -2.9936 0 0.0363242 0 175.298 180 178.204 0 0.0363242 0 171.177 -179.908 -179.408 166.767 -168.494 170.401 175.912 -164.422 175.713 10.3918 -3.65455 21.3314 141.47 -144.14 -169.32 53.7747 -26.7218 31.2992 -0 14.1203 21.4491 5.97971 -7.4119 -10.7779 154.056 -176.617 162.6 36.0006 67.8058 -33.9606 -0 -1.17718 -36.7991 15.6724 -15.7606 6.58489 157.751 175.445 180 7.35574 0.0290859 8.05684 9.22871 0 0 50.2933 4.945 4.4119 80.5018 156.365 180 6.72658 0.0455426 -14.1277 179.062 180 -180
 0.123289 3.37025 -2.44829 3.60131 -119.055 12.4304 1.51386 0.000188063 -1.82881 0 0.0360672 0 0.908332 0.000375784 -3.04801 0 0.0360672 0 2.16178 0.00112735 -3.04801 0 0.0360672 0 175.634 180 178.171 0 0.0360672 0 171.529 -179.91 -179.397 167.377 -168.36 170.422 176.102 -164.415 175.738 10.426 -2.70787 21.253 144.827 -143.477 -168.464 54.926 -27.4447 32.7892 -0 13.0076 21.1108 6.12369 -7.40301 -11.0445 153.606 -176.27 162.351 37.8113 67.3568 -35.6204 -0 -0.55451 -35.827 14.9674 -15.7481 6.09625 156.769 173.622 180 6.45497 0.0183761 7.63096 9.12681 0 0 52.716 5.47981 1.14368 79.9756 156.683 180 6.38991 0.0452371 -14.1596 179.031 180 -180
 0.137543 3.36842 -2.4418 1.86885 -121.384 11.2869 1.20719 0.000379013 -1.8504 0 0.0358582 0 0.724347 0.000757324 -3.08399 0 0.0358582 0 1.88974 0.00227197 -3.08399 0 0.0358582 0 176.021 180 178.15 0 0.0358582 0 172.085 -179.915 -179.389 168.252 -168.345 170.515 176.381 -164.697 175.822 10.4219 -1.70017 21.0741 149.408 -142.414 -166.102 56.2926 -28.2823 34.6773 -0 11.6548 20.808 6.29568 -7.41487 -11.3606 153.286 -175.877 161.986 39.1359 66.5691 -36.7551 -0 0.218353 -34.9606 14.0704 -15.4576 5.56561 156.067 171.564 180 5.70146 -0.0309708 7.20646 9.03942 0 0 54.5166 6.06131 -1.82776 79.229 156.87 180 6.12662 0.0431517 -14.1931 179.027 180 -180
 0.149329 3.36522 -2.44102 0.828324 -123.541 10.4209 1.0022 0.0062846 -1.84866 0 0.0356833 0 0.601873 0.0125576 -3.0811 0 0.0356833 0 1.69485 0.0376727 -3.0811 0 0.0356833 0 176.325 179.994 178.151 0 0.0356833 0 172.559 -179.92 -179.389 168.977 -168.474 170.597 176.618 -165.196 175.92 10.3916 -0.194441 20.7422 154.72 -141.707 -163.103 57.6035 -29.041 36.73 -0 10.2044 20.5426 6.65269 -7.97722 -11.9394 153.165 -175.035 161.375 39.6522 65.3547 -36.7773 -0 1.0096 -34.0701 13.2668 -14.7497 5.3575 155.913 169.402 180 5.19385 -0.104654 6.806 8.98586 0 0 55.9968 6.5813 -4.33588 78.8236 157.094 180 5.86679 -0.000209519 -14.1857 179.044 180 -180
 0.170331 3.36017 -2.4398 0.0841343 -126.077 9.7741 0.874835 0.000113176 -1.86573 0 0.0355117 0 0.524911 0.000226139 -3.10955 0 0.0355117 0 1.53805 0.000678417 -3.10955 0 0.0355117 0 176.611 180 178.134 0 0.0355117 0 173.084 -179.925 -179.383 169.758 -168.799 170.889 176.871 -165.922 176.096 10.4263 0.93532 20.6057 161.216 -141.129 -158.982 58.8761 -29.777 38.543 -0 8.27454 19.9296 7.12577 -8.79909 -12.6825 153.257 -173.957 160.851 39.0367 63.6044 -35.7704 -0 1.63625 -33.054 12.4605 -13.999 5.32882 156.271 167.02 180 5.09021 -0.0813768 6.37808 8.9705 0 0 57.6657 6.5023 -6.73733 78.4668 157.15 180 5.66818 0.00238101 -14.1863 179.059 180 -180
 0.193373 3.35639 -2.44301 179.557 -51.4888 -170.871 0.734585 0.00454518 -1.85612 0 0.0354089 0 0.441154 0.00908187 -3.09353 0 0.0354089 0 1.38863 0.0272456 -3.09353 0 0.0354089 0 176.867 179.995 178.144 0 0.0354089 0 173.522 -179.93 -179.385 170.408 -169.248 171.081 177.089 -166.888 176.264 10.3989 1.97273 20.3472 167.561 -141.462 -153.78 59.7808 -30.1458 40.0958 -0 6.01306 19.3829 7.53553 -10.2106 -13.1905 153.428 -172.621 160.46 38.3302 61.8658 -34.715 -0 2.09853 -31.9238 11.6708 -13.12 5.65858 156.884 164.629 180 5.10821 -0.0985791 5.93484 8.97721 0 0 59.9366 6.34688 -9.02541 78.0588 157.197 180 5.60451 0.00150365 -14.1951 179.107 180 -180
